HIERARCHY
ROOT Bip001_Pelvis
{
  OFFSET 7.937 94.8971 -8.5489
  CHANNELS 6 Xposition Yposition Zposition Zrotation Xrotation Yrotation
  JOINT Bip001_Spine
  {
    OFFSET 1.44608e-005 10.4157 -0.0118244
    CHANNELS 3 Zrotation Xrotation Yrotation
    JOINT Bip001_L_Thigh
    {
      OFFSET 11.2582 -10.4157 0.0118432
      CHANNELS 3 Zrotation Xrotation Yrotation
      JOINT Bip001_L_Calf
      {
        OFFSET -0.720717 -44.8687 0.366937
        CHANNELS 3 Zrotation Xrotation Yrotation
        JOINT Bip001_L_Foot
        {
          OFFSET -0.664439 -41.3745 -3.62995
          CHANNELS 3 Zrotation Xrotation Yrotation
          JOINT Bip001_L_Toe0
          {
            OFFSET 0.0541047 -10.4146 13.4033
            CHANNELS 3 Zrotation Xrotation Yrotation
            End Site
            {
              OFFSET -1.04503e-005 0 7.70137
            }
          }
        }
      }
    }
    JOINT Bip001_R_Thigh
    {
      OFFSET -11.2582 -10.4156 0.0118122
      CHANNELS 3 Zrotation Xrotation Yrotation
      JOINT Bip001_R_Calf
      {
        OFFSET 0.72059 -44.8687 0.36676
        CHANNELS 3 Zrotation Xrotation Yrotation
        JOINT Bip001_R_Foot
        {
          OFFSET 0.664321 -41.3745 -3.62979
          CHANNELS 3 Zrotation Xrotation Yrotation
          JOINT Bip001_R_Toe0
          {
            OFFSET -0.05417 -10.4146 13.4033
            CHANNELS 3 Zrotation Xrotation Yrotation
            End Site
            {
              OFFSET -1.04873e-005 0 7.70137
            }
          }
        }
      }
    }
    JOINT Bip001_Spine1
    {
      OFFSET 1.90638e-005 14.8539 1.10727
      CHANNELS 3 Zrotation Xrotation Yrotation
      JOINT Bip001_Spine2
      {
        OFFSET 2.28934e-005 14.7848 -1.7233
        CHANNELS 3 Zrotation Xrotation Yrotation
        JOINT Bip001_Neck
        {
          OFFSET 2.24514e-005 15.6905 -0.498826
          CHANNELS 3 Zrotation Xrotation Yrotation
          JOINT Bip001_L_Clavicle
          {
            OFFSET 6.17691 -0.000591152 0.00852867
            CHANNELS 3 Zrotation Xrotation Yrotation
            JOINT Bip001_L_UpperArm
            {
              OFFSET 11.773 -0.0611878 0.00197697
              CHANNELS 3 Zrotation Xrotation Yrotation
              JOINT Bip001_L_Forearm
              {
                OFFSET 26.4515 0.0817568 -2.19579
                CHANNELS 3 Zrotation Xrotation Yrotation
                JOINT Bip001_L_Hand
                {
                  OFFSET 32.8677 0.156744 1.67112
                  CHANNELS 3 Zrotation Xrotation Yrotation
                  JOINT Bip001_L_Finger0
                  {
                    OFFSET 6.16268 -2.25226 6.01674
                    CHANNELS 3 Zrotation Xrotation Yrotation
                    End Site
                    {
                      OFFSET 4.30499 -1.46662 0.618148
                    }
                  }
                  JOINT Bip001_L_Finger1
                  {
                    OFFSET 11.2957 -0.718374 -0.201963
                    CHANNELS 3 Zrotation Xrotation Yrotation
                    End Site
                    {
                      OFFSET 6.31952 -0.405163 -0.0802303
                    }
                  }
                }
              }
            }
          }
          JOINT Bip001_R_Clavicle
          {
            OFFSET -6.17691 -0.000574027 0.00851165
            CHANNELS 3 Zrotation Xrotation Yrotation
            JOINT Bip001_R_UpperArm
            {
              OFFSET -11.773 -0.0611516 0.00194365
              CHANNELS 3 Zrotation Xrotation Yrotation
              JOINT Bip001_R_Forearm
              {
                OFFSET -26.4514 0.0822334 -2.19736
                CHANNELS 3 Zrotation Xrotation Yrotation
                JOINT Bip001_R_Hand
                {
                  OFFSET -32.8677 0.156817 1.67144
                  CHANNELS 3 Zrotation Xrotation Yrotation
                  JOINT Bip001_R_Finger0
                  {
                    OFFSET -6.1627 -2.25224 6.0167
                    CHANNELS 3 Zrotation Xrotation Yrotation
                    End Site
                    {
                      OFFSET -4.30499 -1.46662 0.618134
                    }
                  }
                  JOINT Bip001_R_Finger1
                  {
                    OFFSET -11.2958 -0.718344 -0.201994
                    CHANNELS 3 Zrotation Xrotation Yrotation
                    End Site
                    {
                      OFFSET -6.31952 -0.405146 -0.0802475
                    }
                  }
                }
              }
            }
          }
          JOINT Bip001_Head
          {
            OFFSET 1.11782e-005 11.4912 2.09908
            CHANNELS 3 Zrotation Xrotation Yrotation
            End Site
            {
              OFFSET 2.95144e-005 21.2823 -2.83069e-005
            }
          }
        }
      }
    }
  }
}
MOTION
Frames:	8
Frame Time:	0.04
11.7297 88.7649 -4.97863 -2.25218 -2.67847 19.0951 -1.41238 1.69356 1.77278 3.50608 -23.5193 -0.277189 5.10087 46.5433 -19.7536 5.96654 -22.7788 6.03868 -0.780735 -10.0489 1.2307 -8.48917 -8.74611 -1.93826 9.31713 38.0641 -9.57447 -3.71471 -25.063 -16.9131 5.55306 -12.0695 -2.88992 -2.11588 3.35701 3.48182 -2.11588 3.35702 3.48181 3.88974 2.02621 -10.7323 -28.4407 -0.565161 -7.98384 -54.3423 24.3891 26.2223 15.8333 8.28167 -25.0891 -4.16064 0.24598 -0.283468 9.93923e-016 3.18055e-015 3.97569e-016 3.97569e-016 3.18056e-015 -0 15.7941 4.73417 20.7751 40.0811 -29.6089 43.0661 -52.1393 4.86544 80.1736 -50.4392 10.7071 -4.66939 -1.98785e-016 0 -9.93923e-017 -1.98785e-016 -3.18056e-015 -9.93923e-017 -6.20401 -0.901342 -8.05711 
12.0781 90.4558 -4.95659 -1.89867 -2.38423 17.7588 -1.25773 1.49535 1.38087 3.2874 -20.4113 0.590835 3.91393 40.8726 -17.8266 4.76871 -20.0447 5.81387 -0.393171 -10.0298 0.890193 -8.47744 -6.33416 -2.69093 6.15353 32.2903 -5.93729 -2.53157 -21.7256 -16.2061 4.69968 -11.9339 -2.72469 -1.85789 2.96999 2.71635 -1.8579 2.96999 2.71636 0.937851 1.86484 -8.89176 -26.7437 -0.0679715 -6.3141 -57.5394 26.4471 28.9039 15.2388 8.14111 -23.8039 -6.72038 -0.112668 -1.4425 7.95139e-016 0 -1.59028e-015 3.97569e-016 -6.36111e-015 -0 17.8989 5.43413 22.0905 37.8678 -29.0287 36.7913 -53.4404 1.99672 84.7393 -49.5201 11.1594 -4.50171 -1.98785e-016 0 -2.48481e-016 -1.98785e-016 0 2.48481e-016 -4.2164 -0.226675 -7.54914 
12.3525 91.859 -4.83069 -1.53329 -2.02961 16.1636 -1.22477 1.25958 1.29279 2.9686 -17.3583 1.95582 3.90043 35.3351 -16.5372 3.28645 -17.6839 4.77892 -0.0652802 -9.92966 0.872528 -8.13099 -4.07819 -4.78537 2.49198 26.7934 -1.53498 -1.08726 -18.5922 -15.5763 3.83636 -11.8745 -2.37539 -1.88836 2.49896 2.55823 -1.8887 2.49894 2.55844 -0.198284 1.547 -8.09189 -26.361 0.389098 -5.78007 -59.9573 28.0756 31.4009 14.3951 7.50682 -23.0358 -10.6558 -0.751659 -2.11915 -7.95139e-016 -6.36111e-015 -0 -7.95139e-016 -3.18056e-015 -3.18055e-015 20.2296 6.19383 21.8344 34.8915 -27.4439 31.2847 -52.9983 -1.21179 89.675 -43.5815 12.0102 -4.86405 1.59028e-015 -3.18055e-015 2.38542e-015 1.59028e-015 -3.18056e-015 7.95139e-016 -3.03895 0.0828545 -7.34709 
12.5595 93.0725 -4.69383 -1.17755 -1.535 14.3317 -1.32487 0.961727 1.56064 2.80165 -14.4549 2.64748 3.22647 29.9307 -14.5425 2.01906 -15.1972 3.96459 0.295594 -9.91085 0.722716 -7.88396 -1.92413 -5.87322 0.443558 21.088 -1.14124 0.828895 -15.3752 -13.265 2.91148 -11.9108 -1.59453 -2.21099 1.89393 3.11492 -2.21099 1.89392 3.11492 0.810297 0.852196 -8.49111 -26.4929 0.981611 -6.10162 -62.0518 27.6901 32.8045 14.245 7.8835 -22.5405 -15.2837 -1.27928 -2.47308 1.59028e-015 -3.18055e-015 -0 -1.59028e-015 3.18056e-015 -1.59028e-015 21.5878 7.06314 20.1061 30.6555 -24.4324 24.5972 -51.899 -4.6139 94.408 -36.9395 12.9468 -7.43622 -1.59028e-015 0 -2.38542e-015 0 0 -2.38542e-015 -3.46004 0.610574 -7.30934 
12.6805 93.867 -4.73582 -0.802062 -0.818605 12.5218 -1.40988 0.613559 1.67637 2.49882 -12.3944 2.64759 2.40465 25.659 -12.5875 1.17795 -13.1609 3.95619 0.621657 -9.84392 0.659676 -8.18205 -0.782074 -6.1179 -0.195741 16.9541 -1.09373 1.87664 -12.8914 -11.7954 2.126 -11.9128 -0.981928 -2.49224 1.19083 3.35636 -2.49232 1.19082 3.35711 1.35085 0.279197 -8.4349 -26.384 1.44847 -5.98222 -63.1194 27.3343 32.9844 13.9284 7.76027 -22.1988 -18.4503 -1.72472 -1.79483 -3.97569e-015 0 3.18055e-015 -7.95139e-016 0 -0 22.831 7.68096 18.6895 28.4138 -20.975 17.61 -51.3931 -7.96407 98.828 -33.1066 13.2786 -8.9025 3.97251e-031 9.54166e-015 -2.38542e-015 -6.36111e-015 9.54167e-015 -1.59028e-015 -3.75585 1.29376 -6.98845 
12.731 94.4286 -4.7372 -0.464259 -0.643216 10.7106 -1.29191 0.431011 1.60699 2.65624 -10.3672 3.41481 0.990147 22.2686 -11.0714 1.08012 -11.625 4.07796 0.844916 -9.76973 0.509366 -8.76754 0.329786 -6.38668 -0.252009 13.6457 -0.905888 2.36168 -10.8431 -10.325 1.57923 -11.9378 -0.4651 -2.34738 0.829049 3.22148 -2.34738 0.82905 3.22148 0.0242681 -0.17318 -7.60144 -25.8791 2.15053 -5.6676 -63.0282 27.5799 32.1183 13.7714 7.26163 -21.9578 -19.1199 -1.98276 -0.937542 -4.77083e-015 0 -3.18055e-015 -7.95139e-015 -3.18056e-015 -3.18055e-015 25.3459 8.40763 18.1333 26.3364 -16.7139 9.82104 -51.6539 -10.8857 101.197 -35.4787 11.9814 -5.76878 -1.76556e-031 -6.36111e-015 -1.59028e-015 -3.53113e-031 -6.36111e-015 -3.18055e-015 -2.82582 1.54305 -6.76368 
12.6446 94.7777 -4.75333 -0.106894 -0.744934 9.21981 -1.13103 0.383788 1.4528 2.70079 -8.7938 3.95477 -0.0851114 19.9069 -9.23186 1.07105 -10.4654 3.7516 0.745383 -9.80387 0.328463 -9.26028 0.963449 -6.61875 -0.452623 11.7128 -0.341655 2.84169 -9.51274 -9.21536 1.1811 -11.9394 -0.188479 -2.10811 0.740772 2.91289 -2.1081 0.74077 2.91288 -1.02371 -1.13292 -6.82925 -25.767 3.38027 -5.57231 -62.4641 28.003 30.2743 13.4771 6.90907 -21.6517 -16.3459 -1.68139 -0.510861 -1.59028e-015 0 -0 -1.59028e-015 3.18056e-015 -0 27.2378 9.38516 17.325 25.5261 -11.6611 1.91795 -53.5229 -12.6431 101.549 -38.5107 9.05776 -0.272846 3.18055e-015 3.18055e-015 1.59028e-015 0 0 -1.59028e-015 -2.28141 1.92616 -6.40648 
12.4805 95.0229 -4.74435 0.171704 -0.931374 7.6477 -1.03403 0.37195 1.28349 2.68999 -7.42086 4.41151 -0.63319 18.0216 -7.75336 0.876173 -9.64128 3.70238 0.717546 -9.83751 0.239646 -9.6798 1.23555 -5.91913 -0.28422 10.548 -0.280729 3.05778 -8.58326 -8.44311 0.873228 -11.9408 0.0413953 -1.97973 0.726571 2.57435 -1.97973 0.726596 2.57436 -1.34435 -1.60536 -5.93962 -25.7499 4.31509 -6.39657 -61.8343 28.3659 28.1392 13.3537 6.1974 -21.6193 -11.9523 -1.16793 -0.253615 0 3.18055e-015 -0 -1.59028e-015 3.18056e-015 -7.95139e-016 28.7867 9.71836 16.3052 26.9239 -5.96159 -5.2301 -54.2298 -11.1326 100.383 -38.8616 4.99642 3.62301 9.54166e-015 -3.18055e-015 -1.59028e-015 6.36111e-015 -3.18056e-015 -0 -1.89097 1.62038 -5.71884 
